<svg width="24" height="24" viewBox="0 0 24 24" fill="none" xmlns="http://www.w3.org/2000/svg">
<path d="M17.5002 21.9997C16.9664 22.0059 16.4385 21.8885 15.9576 21.6567C15.4768 21.4248 15.0561 21.0849 14.7285 20.6635C14.4008 20.242 14.1752 19.7505 14.0692 19.2273C13.9631 18.7041 13.9796 18.1635 14.1172 17.6477L7.85722 14.0697C7.32914 14.5535 6.66515 14.8634 5.95514 14.9573C5.24513 15.0512 4.52341 14.9247 3.8877 14.5948C3.25199 14.265 2.73301 13.7477 2.40101 13.1131C2.06902 12.4785 1.94005 11.7572 2.03158 11.0469C2.12312 10.3366 2.43072 9.67157 2.91274 9.14187C3.39477 8.61217 4.02793 8.24339 4.72649 8.08547C5.42506 7.92755 6.15528 7.98811 6.81828 8.25895C7.48129 8.5298 8.04504 8.99785 8.43322 9.59972L14.1162 6.35072C14.0427 6.07291 14.0037 5.78708 14.0002 5.49972C13.9933 4.68796 14.2662 3.89858 14.7732 3.26452C15.2801 2.63046 15.99 2.19044 16.7834 2.01855C17.5768 1.84665 18.4052 1.95339 19.1291 2.32078C19.853 2.68818 20.4282 3.29379 20.7579 4.03564C21.0875 4.77749 21.1515 5.61028 20.939 6.39377C20.7265 7.17726 20.2505 7.8636 19.5912 8.33723C18.9319 8.81086 18.1295 9.04284 17.3192 8.99412C16.5088 8.94539 15.74 8.61894 15.1422 8.06972L8.99222 11.5847C8.98522 11.8447 8.94922 12.1017 8.88322 12.3527L15.1432 15.9297C15.5622 15.5452 16.0687 15.2688 16.6187 15.1243C17.1687 14.9799 17.7457 14.9719 18.2995 15.1009C18.8534 15.23 19.3674 15.4922 19.7969 15.8649C20.2264 16.2376 20.5585 16.7095 20.7643 17.2396C20.9702 17.7698 21.0436 18.3421 20.9781 18.907C20.9127 19.4719 20.7104 20.0123 20.3888 20.4813C20.0671 20.9503 19.636 21.3337 19.1326 21.5983C18.6292 21.8629 18.0689 22.0007 17.5002 21.9997ZM17.5002 16.9997C17.1024 16.9997 16.7209 17.1578 16.4396 17.4391C16.1583 17.7204 16.0002 18.1019 16.0002 18.4997C16.0002 18.8975 16.1583 19.2791 16.4396 19.5604C16.7209 19.8417 17.1024 19.9997 17.5002 19.9997C17.898 19.9997 18.2796 19.8417 18.5609 19.5604C18.8422 19.2791 19.0002 18.8975 19.0002 18.4997C19.0002 18.1019 18.8422 17.7204 18.5609 17.4391C18.2796 17.1578 17.898 16.9997 17.5002 16.9997ZM5.50022 9.99972C5.10239 9.99972 4.72086 10.1578 4.43956 10.4391C4.15825 10.7204 4.00022 11.1019 4.00022 11.4997C4.00022 11.8975 4.15825 12.2791 4.43956 12.5604C4.72086 12.8417 5.10239 12.9997 5.50022 12.9997C5.89804 12.9997 6.27957 12.8417 6.56088 12.5604C6.84218 12.2791 7.00022 11.8975 7.00022 11.4997C7.00022 11.1019 6.84218 10.7204 6.56088 10.4391C6.27957 10.1578 5.89804 9.99972 5.50022 9.99972ZM17.5002 3.99972C17.3032 3.99972 17.1082 4.03852 16.9262 4.1139C16.7442 4.18929 16.5788 4.29977 16.4396 4.43906C16.3003 4.57835 16.1898 4.74371 16.1144 4.9257C16.039 5.10769 16.0002 5.30274 16.0002 5.49972C16.0002 5.69671 16.039 5.89176 16.1144 6.07375C16.1898 6.25574 16.3003 6.4211 16.4396 6.56038C16.5788 6.69967 16.7442 6.81016 16.9262 6.88554C17.1082 6.96092 17.3032 6.99972 17.5002 6.99972C17.898 6.99972 18.2796 6.84169 18.5609 6.56038C18.8422 6.27908 19.0002 5.89755 19.0002 5.49972C19.0002 5.1019 18.8422 4.72037 18.5609 4.43906C18.2796 4.15776 17.898 3.99972 17.5002 3.99972Z" fill="white"/>
</svg>
