<svg width="20" height="21" viewBox="0 0 20 21" fill="none" xmlns="http://www.w3.org/2000/svg">
<path d="M15.5002 20.9997C14.9664 21.0059 14.4385 20.8885 13.9576 20.6567C13.4768 20.4248 13.0561 20.0849 12.7285 19.6635C12.4008 19.242 12.1752 18.7505 12.0692 18.2273C11.9631 17.7041 11.9796 17.1635 12.1172 16.6477L5.85722 13.0697C5.32914 13.5535 4.66515 13.8634 3.95514 13.9573C3.24513 14.0512 2.52341 13.9247 1.8877 13.5948C1.25199 13.265 0.733006 12.7477 0.401012 12.1131C0.0690168 11.4785 -0.0599461 10.7572 0.0315849 10.0469C0.123116 9.33661 0.430719 8.67157 0.912744 8.14187C1.39477 7.61217 2.02793 7.24339 2.72649 7.08547C3.42506 6.92755 4.15528 6.98811 4.81828 7.25895C5.48129 7.5298 6.04504 7.99785 6.43322 8.59972L12.1162 5.35072C12.0427 5.07291 12.0037 4.78708 12.0002 4.49972C11.9933 3.68796 12.2662 2.89858 12.7732 2.26452C13.2801 1.63046 13.99 1.19044 14.7834 1.01855C15.5768 0.846653 16.4052 0.953389 17.1291 1.32078C17.853 1.68818 18.4282 2.29379 18.7579 3.03564C19.0875 3.77749 19.1515 4.61028 18.939 5.39377C18.7265 6.17726 18.2505 6.8636 17.5912 7.33723C16.9319 7.81086 16.1295 8.04284 15.3192 7.99412C14.5088 7.94539 13.74 7.61894 13.1422 7.06972L6.99222 10.5847C6.98522 10.8447 6.94922 11.1017 6.88322 11.3527L13.1432 14.9297C13.5622 14.5452 14.0687 14.2688 14.6187 14.1243C15.1687 13.9799 15.7457 13.9719 16.2995 14.1009C16.8534 14.23 17.3674 14.4922 17.7969 14.8649C18.2264 15.2376 18.5585 15.7095 18.7643 16.2396C18.9702 16.7698 19.0436 17.3421 18.9781 17.907C18.9127 18.4719 18.7104 19.0123 18.3888 19.4813C18.0671 19.9503 17.636 20.3337 17.1326 20.5983C16.6292 20.8629 16.0689 21.0007 15.5002 20.9997ZM15.5002 15.9997C15.1024 15.9997 14.7209 16.1578 14.4396 16.4391C14.1583 16.7204 14.0002 17.1019 14.0002 17.4997C14.0002 17.8975 14.1583 18.2791 14.4396 18.5604C14.7209 18.8417 15.1024 18.9997 15.5002 18.9997C15.898 18.9997 16.2796 18.8417 16.5609 18.5604C16.8422 18.2791 17.0002 17.8975 17.0002 17.4997C17.0002 17.1019 16.8422 16.7204 16.5609 16.4391C16.2796 16.1578 15.898 15.9997 15.5002 15.9997ZM3.50022 8.99972C3.10239 8.99972 2.72086 9.15776 2.43956 9.43906C2.15825 9.72037 2.00022 10.1019 2.00022 10.4997C2.00022 10.8975 2.15825 11.2791 2.43956 11.5604C2.72086 11.8417 3.10239 11.9997 3.50022 11.9997C3.89804 11.9997 4.27957 11.8417 4.56088 11.5604C4.84218 11.2791 5.00022 10.8975 5.00022 10.4997C5.00022 10.1019 4.84218 9.72037 4.56088 9.43906C4.27957 9.15776 3.89804 8.99972 3.50022 8.99972ZM15.5002 2.99972C15.3032 2.99972 15.1082 3.03852 14.9262 3.1139C14.7442 3.18929 14.5788 3.29977 14.4396 3.43906C14.3003 3.57835 14.1898 3.74371 14.1144 3.9257C14.039 4.10769 14.0002 4.30274 14.0002 4.49972C14.0002 4.69671 14.039 4.89176 14.1144 5.07375C14.1898 5.25574 14.3003 5.4211 14.4396 5.56038C14.5788 5.69967 14.7442 5.81016 14.9262 5.88554C15.1082 5.96092 15.3032 5.99972 15.5002 5.99972C15.898 5.99972 16.2796 5.84169 16.5609 5.56038C16.8422 5.27908 17.0002 4.89755 17.0002 4.49972C17.0002 4.1019 16.8422 3.72037 16.5609 3.43906C16.2796 3.15776 15.898 2.99972 15.5002 2.99972Z" fill="black"/>
</svg>
