<svg width="48" height="48" viewBox="0 0 48 48" fill="none" xmlns="http://www.w3.org/2000/svg">
<g clip-path="url(#clip0_34717_7256)">
<path d="M24 45C18.4305 45 13.089 42.7875 9.15076 38.8492C5.21249 34.911 3 29.5695 3 24C3 18.4305 5.21249 13.089 9.15076 9.15076C13.089 5.21249 18.4305 3 24 3C29.5695 3 34.911 5.21249 38.8492 9.15076C42.7875 13.089 45 18.4305 45 24C45 29.5695 42.7875 34.911 38.8492 38.8492C34.911 42.7875 29.5695 45 24 45ZM24 48C30.3652 48 36.4697 45.4714 40.9706 40.9706C45.4714 36.4697 48 30.3652 48 24C48 17.6348 45.4714 11.5303 40.9706 7.02944C36.4697 2.52856 30.3652 0 24 0C17.6348 0 11.5303 2.52856 7.02944 7.02944C2.52856 11.5303 0 17.6348 0 24C0 30.3652 2.52856 36.4697 7.02944 40.9706C11.5303 45.4714 17.6348 48 24 48Z" fill="white"/>
<path d="M18.813 15.1654C19.0584 15.0391 19.3338 14.9829 19.609 15.003C19.8843 15.0231 20.1486 15.1188 20.373 15.2794L30.873 22.7794C31.0674 22.9182 31.2259 23.1014 31.3353 23.3138C31.4447 23.5261 31.5017 23.7616 31.5017 24.0004C31.5017 24.2393 31.4447 24.4747 31.3353 24.6871C31.2259 24.8995 31.0674 25.0827 30.873 25.2214L20.373 32.7214C20.1487 32.882 19.8845 32.9776 19.6094 32.9977C19.3343 33.0178 19.059 32.9617 18.8137 32.8355C18.5684 32.7093 18.3627 32.5179 18.2192 32.2824C18.0756 32.0468 17.9998 31.7763 18 31.5005V16.5004C17.9997 16.2247 18.0754 15.9542 18.2189 15.7187C18.3623 15.4832 18.5679 15.2917 18.813 15.1654Z" fill="white"/>
</g>
<defs>
<clipPath id="clip0_34717_7256">
<rect width="48" height="48" fill="white"/>
</clipPath>
</defs>
</svg>
